<svg width="32" height="32" viewBox="0 0 32 32" fill="none" xmlns="http://www.w3.org/2000/svg">
<path d="M26.66 8.91736C27.8552 8.20281 28.7496 7.07767 29.176 5.75203C28.0529 6.41843 26.824 6.88786 25.5427 7.14003C23.7661 5.26073 20.9513 4.80339 18.6712 6.02357C16.391 7.24374 15.21 9.83934 15.788 12.36C11.1875 12.1291 6.90128 9.95591 3.99599 6.38136C2.47978 8.99659 3.25459 12.3397 5.76666 14.0214C4.85827 13.9922 3.97003 13.7462 3.17599 13.304C3.17599 13.328 3.17599 13.352 3.17599 13.376C3.17652 16.1002 5.09649 18.4468 7.76666 18.9867C6.92408 19.2159 6.04027 19.2497 5.18266 19.0854C5.93359 21.4151 8.08072 23.0111 10.528 23.0587C8.5011 24.6495 5.99796 25.5122 3.42132 25.508C2.96462 25.5087 2.50827 25.4824 2.05466 25.4294C4.67118 27.1107 7.71648 28.0032 10.8267 28C15.1537 28.0297 19.312 26.3239 22.3716 23.264C25.4312 20.2042 27.1367 16.0457 27.1067 11.7187C27.1067 11.4707 27.1009 11.224 27.0893 10.9787C28.2099 10.1688 29.1771 9.16556 29.9453 8.01603C28.9013 8.47878 27.794 8.78259 26.66 8.91736Z" fill="#EBCF6F"/>
</svg>
